{"asset":{"version":"2.0","generator":"Blockbench 4.12.5 glTF exporter"},"scenes":[{"nodes":[7],"name":"blockbench_export"}],"scene":0,"nodes":[{"rotation":[0.707106781186548,0,0,0.707106781186547],"name":"plane","mesh":0},{"translation":[0,0.5,0],"name":"Armor","children":[0]},{"rotation":[0.707106781186548,0,0,0.707106781186547],"name":"plane","mesh":1},{"translation":[0,0.5,0],"name":"Spear","children":[2]},{"rotation":[0.707106781186548,0,0,0.707106781186547],"name":"plane","mesh":2},{"translation":[0,0.5,0],"name":"Shield","children":[4]},{"name":"Bat","children":[1,3,5]},{"children":[6]}],"bufferViews":[{"buffer":0,"byteOffset":0,"byteLength":48,"target":34962,"byteStride":12},{"buffer":0,"byteOffset":48,"byteLength":48,"target":34962,"byteStride":12},{"buffer":0,"byteOffset":96,"byteLength":32,"target":34962,"byteStride":8},{"buffer":0,"byteOffset":128,"byteLength":12,"target":34963},{"buffer":0,"byteOffset":140,"byteLength":48,"target":34962,"byteStride":12},{"buffer":0,"byteOffset":188,"byteLength":48,"target":34962,"byteStride":12},{"buffer":0,"byteOffset":236,"byteLength":32,"target":34962,"byteStride":8},{"buffer":0,"byteOffset":268,"byteLength":12,"target":34963},{"buffer":0,"byteOffset":280,"byteLength":48,"target":34962,"byteStride":12},{"buffer":0,"byteOffset":328,"byteLength":48,"target":34962,"byteStride":12},{"buffer":0,"byteOffset":376,"byteLength":32,"target":34962,"byteStride":8},{"buffer":0,"byteOffset":408,"byteLength":12,"target":34963},{"buffer":0,"byteOffset":420,"byteLength":20},{"buffer":0,"byteOffset":440,"byteLength":60},{"buffer":0,"byteOffset":500,"byteLength":16},{"buffer":0,"byteOffset":516,"byteLength":48},{"buffer":0,"byteOffset":564,"byteLength":12},{"buffer":0,"byteOffset":576,"byteLength":48},{"buffer":0,"byteOffset":624,"byteLength":12},{"buffer":0,"byteOffset":636,"byteLength":36}],"buffers":[{"byteLength":672,"uri":"data:application/octet-stream;base64,"}],"accessors":[{"bufferView":0,"componentType":5126,"count":4,"max":[0.5,0,0.5],"min":[-0.5,0,-0.5],"type":"VEC3"},{"bufferView":1,"componentType":5126,"count":4,"max":[0,1,0],"min":[0,1,0],"type":"VEC3"},{"bufferView":2,"componentType":5126,"count":4,"max":[0.5,0.5],"min":[0,0],"type":"VEC2"},{"bufferView":3,"componentType":5123,"count":6,"max":[3],"min":[0],"type":"SCALAR"},{"bufferView":4,"componentType":5126,"count":4,"max":[0.5,0,0.5],"min":[-0.5,0,-0.5],"type":"VEC3"},{"bufferView":5,"componentType":5126,"count":4,"max":[0,1,0],"min":[0,1,0],"type":"VEC3"},{"bufferView":6,"componentType":5126,"count":4,"max":[0.5,1],"min":[0,0.5],"type":"VEC2"},{"bufferView":7,"componentType":5123,"count":6,"max":[3],"min":[0],"type":"SCALAR"},{"bufferView":8,"componentType":5126,"count":4,"max":[0.5,0,0.5],"min":[-0.5,0,-0.5],"type":"VEC3"},{"bufferView":9,"componentType":5126,"count":4,"max":[0,1,0],"min":[0,1,0],"type":"VEC3"},{"bufferView":10,"componentType":5126,"count":4,"max":[1,0.5],"min":[0.5,0],"type":"VEC2"},{"bufferView":11,"componentType":5123,"count":6,"max":[3],"min":[0],"type":"SCALAR"},{"bufferView":12,"componentType":5126,"count":5,"max":[1],"min":[0],"type":"SCALAR"},{"bufferView":13,"componentType":5126,"count":5,"max":[0.04374999925494194,0.5625,0],"min":[-0.01875000074505806,0.5,0],"type":"VEC3"},{"bufferView":14,"componentType":5126,"count":4,"max":[0.75],"min":[0],"type":"SCALAR"},{"bufferView":15,"componentType":5126,"count":4,"max":[0,0.53125,0],"min":[0,0.46875,0],"type":"VEC3"},{"bufferView":16,"componentType":5126,"count":3,"max":[0.5],"min":[0],"type":"SCALAR"},{"bufferView":17,"componentType":5126,"count":3,"max":[0,0,0,1],"min":[-1,0,0,6.123234262925839e-17],"type":"VEC4"},{"bufferView":18,"componentType":5126,"count":3,"max":[1],"min":[0],"type":"SCALAR"},{"bufferView":19,"componentType":5126,"count":3,"max":[0,0.6875,0],"min":[0,0.5,0],"type":"VEC3"}],"materials":[{"pbrMetallicRoughness":{"metallicFactor":0,"roughnessFactor":1,"baseColorTexture":{"index":0}},"alphaMode":"MASK","alphaCutoff":0.05,"doubleSided":true}],"textures":[{"sampler":0,"source":0,"name":"knight"}],"samplers":[{"magFilter":9728,"minFilter":9728,"wrapS":33071,"wrapT":33071}],"images":[{"mimeType":"image/png","uri":"data:image/png;base64,"}],"meshes":[{"primitives":[{"mode":4,"attributes":{"POSITION":0,"NORMAL":1,"TEXCOORD_0":2},"indices":3,"material":0}]},{"primitives":[{"mode":4,"attributes":{"POSITION":4,"NORMAL":5,"TEXCOORD_0":6},"indices":7,"material":0}]},{"primitives":[{"mode":4,"attributes":{"POSITION":8,"NORMAL":9,"TEXCOORD_0":10},"indices":11,"material":0}]}],"animations":[{"name":"idle","samplers":[{"input":12,"output":13,"interpolation":"LINEAR"},{"input":14,"output":15,"interpolation":"LINEAR"}],"channels":[{"sampler":0,"target":{"node":3,"path":"translation"}},{"sampler":1,"target":{"node":5,"path":"translation"}}]},{"name":"spear_attack","samplers":[{"input":16,"output":17,"interpolation":"LINEAR"},{"input":18,"output":19,"interpolation":"LINEAR"}],"channels":[{"sampler":0,"target":{"node":3,"path":"rotation"}},{"sampler":1,"target":{"node":3,"path":"translation"}}]}]}